solid Exported from Blender-2.80 (sub 35)
facet normal 1.000000 0.000000 0.000000
outer loop
vertex -0.036311 -0.001317 0.252585
vertex -0.036311 -0.023140 0.230762
vertex -0.036311 -0.023140 0.038658
endloop
endfacet
facet normal 1.000000 0.000000 0.000000
outer loop
vertex -0.036311 -0.023140 0.038658
vertex -0.036311 0.023140 0.038658
vertex -0.036311 0.023140 0.230762
endloop
endfacet
facet normal 1.000000 0.000000 0.000000
outer loop
vertex -0.036311 0.023140 0.230762
vertex -0.036311 0.001317 0.252585
vertex -0.036311 -0.001317 0.252585
endloop
endfacet
facet normal 1.000000 -0.000000 0.000000
outer loop
vertex -0.036311 -0.023140 0.038658
vertex -0.036311 0.023140 0.230762
vertex -0.036311 -0.001317 0.252585
endloop
endfacet
facet normal -1.000000 0.000000 0.000000
outer loop
vertex -0.108287 0.001317 0.252585
vertex -0.108287 0.023140 0.230762
vertex -0.108287 0.023140 0.038658
endloop
endfacet
facet normal -1.000000 0.000000 0.000000
outer loop
vertex -0.108287 0.023140 0.038658
vertex -0.108287 -0.023140 0.038658
vertex -0.108287 -0.023140 0.230762
endloop
endfacet
facet normal -1.000000 0.000000 0.000000
outer loop
vertex -0.108287 -0.023140 0.230762
vertex -0.108287 -0.001317 0.252585
vertex -0.108287 0.001317 0.252585
endloop
endfacet
facet normal -1.000000 0.000000 0.000000
outer loop
vertex -0.108287 0.023140 0.038658
vertex -0.108287 -0.023140 0.230762
vertex -0.108287 0.001317 0.252585
endloop
endfacet
facet normal 0.000000 1.000000 0.000000
outer loop
vertex -0.036311 0.023140 0.038658
vertex -0.108287 0.023140 0.038658
vertex -0.108287 0.023140 0.230762
endloop
endfacet
facet normal 0.000000 1.000000 0.000000
outer loop
vertex -0.036311 0.023140 0.038658
vertex -0.108287 0.023140 0.230762
vertex -0.036311 0.023140 0.230762
endloop
endfacet
facet normal 0.000000 0.000000 1.000000
outer loop
vertex -0.036311 0.001317 0.252585
vertex -0.108287 0.001317 0.252585
vertex -0.108287 -0.001317 0.252585
endloop
endfacet
facet normal 0.000000 0.000000 1.000000
outer loop
vertex -0.036311 0.001317 0.252585
vertex -0.108287 -0.001317 0.252585
vertex -0.036311 -0.001317 0.252585
endloop
endfacet
facet normal 0.000000 0.000000 -1.000000
outer loop
vertex -0.108287 0.023140 0.038658
vertex -0.036311 0.023140 0.038658
vertex -0.036311 -0.023140 0.038658
endloop
endfacet
facet normal 0.000000 0.000000 -1.000000
outer loop
vertex -0.108287 0.023140 0.038658
vertex -0.036311 -0.023140 0.038658
vertex -0.108287 -0.023140 0.038658
endloop
endfacet
facet normal 0.000000 0.707107 0.707107
outer loop
vertex -0.036311 0.001317 0.252585
vertex -0.036311 0.023140 0.230762
vertex -0.108287 0.023140 0.230762
endloop
endfacet
facet normal 0.000000 0.707107 0.707107
outer loop
vertex -0.036311 0.001317 0.252585
vertex -0.108287 0.023140 0.230762
vertex -0.108287 0.001317 0.252585
endloop
endfacet
facet normal 0.000000 -0.707107 0.707107
outer loop
vertex -0.108287 -0.001317 0.252585
vertex -0.108287 -0.023140 0.230762
vertex -0.036311 -0.023140 0.230762
endloop
endfacet
facet normal 0.000000 -0.707107 0.707107
outer loop
vertex -0.108287 -0.001317 0.252585
vertex -0.036311 -0.023140 0.230762
vertex -0.036311 -0.001317 0.252585
endloop
endfacet
facet normal 0.000000 -1.000000 0.000000
outer loop
vertex -0.108287 -0.023140 0.038658
vertex -0.036311 -0.023140 0.038658
vertex -0.036311 -0.023140 0.230762
endloop
endfacet
facet normal 0.000000 -1.000000 0.000000
outer loop
vertex -0.108287 -0.023140 0.038658
vertex -0.036311 -0.023140 0.230762
vertex -0.108287 -0.023140 0.230762
endloop
endfacet
endsolid Exported from Blender-2.80 (sub 35)
